<?xml version="1.0" standalone="no"?>
<svg xmlns="http://www.w3.org/2000/svg" viewBox="0 0 265.829 29.448" width="265.829" height="29.448"><g fill="#000000" color="#000000" transform="translate(0, 0) scale(0.659091)"><svg width="44.0" height="44.0" x="0.0" y="0.0" viewBox="0 0 44 44"><path fill="currentColor" fill-rule="evenodd" d="M21.973 29.756l14.787 8.535-9.168 5.28-5.605-3.224-5.563 3.225-9.182-5.281 14.73-8.535zm0-15.005L44 27.454v6.492l-3.52 2.07-18.506-10.675L3.525 36.016l-3.52-2.042v-6.52L21.973 14.75zM21.97 0l22.026 12.689v10.576L21.984 10.591 0 23.294V12.703L21.97 0z"></path></svg></g><line x1="41" y1="1" x2="41" y2="28" stroke="#000000" stroke-linecap="round"></line><path fill="#000000" fill-rule="nonzero" d="M0 22.25L0 2.24L3.04 2.24Q3.61 2.24 4.29 2.29Q4.98 2.34 5.67 2.54Q6.35 2.73 6.99 3.13Q7.63 3.53 8.12 4.21Q8.61 4.90 8.91 5.93Q9.21 6.96 9.21 8.44L9.21 8.44L9.21 9.14Q9.21 10.75 8.94 11.89Q8.66 13.03 8.20 13.81Q7.75 14.59 7.14 15.06Q6.54 15.53 5.89 15.77Q5.24 16.01 4.58 16.08Q3.91 16.16 3.33 16.16L3.33 16.16L3.04 16.16L3.04 22.25L0 22.25ZM3.04 13.93L3.19 13.93Q4.01 13.93 4.57 13.69Q5.13 13.45 5.47 12.94Q5.80 12.43 5.95 11.63Q6.09 10.83 6.09 9.70L6.09 9.70L6.09 7.90Q6.09 7.01 5.96 6.36Q5.84 5.71 5.50 5.29Q5.17 4.86 4.61 4.66Q4.04 4.45 3.19 4.45L3.19 4.45L3.04 4.45L3.04 13.93ZM9.91 26.07L13.58 0.18L16.15 0.18L12.48 26.07L9.91 26.07ZM22.29 22.43L22.29 22.43Q21.82 22.43 21.28 22.35Q20.73 22.28 20.19 22.03Q19.64 21.79 19.14 21.33Q18.64 20.88 18.26 20.14Q17.88 19.41 17.65 18.32Q17.43 17.24 17.43 15.74L17.43 15.74L17.43 8.65Q17.43 7.14 17.66 6.06Q17.89 4.99 18.28 4.26Q18.67 3.53 19.17 3.09Q19.68 2.66 20.21 2.43Q20.75 2.20 21.29 2.13Q21.82 2.06 22.28 2.06L22.28 2.06Q23.47 2.06 24.28 2.40Q25.08 2.73 25.56 3.31Q26.05 3.89 26.26 4.66Q26.46 5.44 26.46 6.30L26.46 6.30Q26.46 6.95 26.40 7.49Q26.33 8.04 26.20 8.70L26.20 8.70L23.74 8.70L23.74 7.68Q23.74 6.02 23.38 5.20Q23.02 4.38 22.31 4.38L22.31 4.38Q21.89 4.38 21.57 4.55Q21.26 4.71 21.05 5.10Q20.84 5.50 20.72 6.14Q20.61 6.79 20.61 7.75L20.61 7.75L20.61 16.89Q20.61 17.82 20.70 18.45Q20.79 19.07 20.99 19.44Q21.19 19.82 21.51 19.97Q21.83 20.13 22.29 20.13L22.29 20.13Q22.58 20.13 22.85 20.00Q23.12 19.86 23.33 19.58Q23.53 19.29 23.65 18.85Q23.78 18.41 23.78 17.81L23.78 17.81L23.78 15.86L26.55 15.86L26.55 17.71Q26.55 20.12 25.45 21.27Q24.35 22.42 22.29 22.43ZM30.98 22.43L30.98 22.43Q30.23 22.43 29.65 22.13Q29.07 21.83 28.68 21.32Q28.28 20.80 28.07 20.09Q27.87 19.38 27.87 18.55L27.87 18.55Q27.87 17.55 28.11 16.78Q28.36 16.01 28.83 15.39Q29.31 14.77 30.01 14.26Q30.71 13.75 31.64 13.29L31.64 13.29Q32.09 13.07 32.64 12.84Q33.20 12.61 33.63 12.45L33.63 12.45L33.63 10.31Q33.63 9.84 33.60 9.44Q33.56 9.04 33.43 8.74Q33.29 8.44 33.02 8.27Q32.75 8.10 32.29 8.10L32.29 8.10Q31.97 8.10 31.67 8.21Q31.37 8.33 31.14 8.61Q30.91 8.89 30.78 9.36Q30.64 9.83 30.64 10.52L30.64 10.52L30.64 11.23L28.38 11.23Q28.28 10.77 28.22 10.39Q28.17 10.01 28.17 9.63L28.17 9.63Q28.17 8.73 28.48 8.04Q28.79 7.35 29.35 6.88Q29.91 6.41 30.68 6.17Q31.45 5.93 32.38 5.93L32.38 5.93Q33.59 5.93 34.38 6.19Q35.18 6.46 35.65 6.98Q36.13 7.51 36.32 8.31Q36.52 9.11 36.52 10.17L36.52 10.17L36.52 22.25L34.31 22.25L34.10 20.87Q33.62 21.56 32.82 22.00Q32.02 22.43 30.98 22.43ZM32.30 20.14L32.30 20.14Q32.67 20.14 33.03 19.95Q33.39 19.76 33.63 19.48L33.63 19.48L33.63 14.43Q33.40 14.52 33.11 14.65Q32.81 14.78 32.47 14.99L32.47 14.99Q32.16 15.19 31.85 15.47Q31.55 15.75 31.31 16.14Q31.07 16.52 30.92 17.01Q30.77 17.50 30.77 18.09L30.77 18.09Q30.77 19.02 31.14 19.58Q31.50 20.14 32.30 20.14ZM39.59 22.25L39.59 6.12L41.75 6.12L42.01 7.76Q42.50 6.84 43.14 6.39Q43.78 5.93 44.45 5.93L44.45 5.93Q45.73 5.93 46.34 6.71Q46.95 7.50 46.95 9.07L46.95 9.07Q46.95 9.27 46.92 9.54Q46.89 9.82 46.83 10.12Q46.78 10.42 46.71 10.72Q46.63 11.02 46.55 11.26L46.55 11.26L44.48 11.26L44.48 9.76Q44.48 9.27 44.42 8.95Q44.36 8.64 44.25 8.44Q44.14 8.25 44.00 8.17Q43.86 8.10 43.70 8.10L43.70 8.10Q43.35 8.10 43.05 8.33Q42.75 8.55 42.55 8.96L42.55 8.96L42.55 22.25L39.59 22.25ZM51.91 22.44L51.91 22.44Q51.64 22.44 51.28 22.39Q50.92 22.34 50.53 22.15Q50.14 21.96 49.77 21.59Q49.39 21.21 49.10 20.56Q48.81 19.91 48.63 18.95Q48.45 17.99 48.45 16.62L48.45 16.62L48.45 11.50Q48.45 10.14 48.64 9.20Q48.83 8.26 49.15 7.65Q49.46 7.03 49.86 6.69Q50.25 6.34 50.64 6.18Q51.04 6.01 51.39 5.98Q51.75 5.94 51.98 5.94L51.98 5.94Q52.42 5.94 52.80 6.06Q53.19 6.18 53.51 6.37Q53.82 6.56 54.07 6.80Q54.32 7.04 54.48 7.29L54.48 7.29L54.49 7.28L54.40 5.24L54.40 0.94L57.35 0.94L57.35 22.25L55.04 22.25L54.79 20.75Q54.59 21.07 54.33 21.38Q54.07 21.68 53.72 21.92Q53.37 22.16 52.92 22.30Q52.48 22.44 51.91 22.44ZM52.92 20.14L52.92 20.14Q53.21 20.14 53.44 20.04Q53.67 19.95 53.85 19.79Q54.04 19.63 54.17 19.42Q54.30 19.21 54.40 18.98L54.40 18.98L54.40 9.28Q54.18 8.79 53.81 8.44Q53.44 8.10 52.91 8.10L52.91 8.10Q52.58 8.10 52.31 8.21Q52.04 8.33 51.84 8.65Q51.64 8.98 51.53 9.54Q51.42 10.11 51.42 11.02L51.42 11.02L51.42 17.20Q51.42 18.11 51.53 18.68Q51.64 19.25 51.84 19.58Q52.04 19.90 52.32 20.02Q52.59 20.14 52.92 20.14ZM65.72 22.25L65.72 2.24L68.75 2.24L68.75 22.25L65.72 22.25ZM71.99 22.25L71.99 6.12L74.27 6.12L74.54 7.84L74.54 7.85Q74.89 7.30 75.30 6.93Q75.70 6.56 76.14 6.34Q76.57 6.12 77.02 6.02Q77.47 5.93 77.92 5.93L77.92 5.93Q79.34 5.93 80.10 6.92Q80.87 7.91 80.87 9.89L80.87 9.89L80.87 22.25L77.91 22.25L77.91 10.00Q77.91 8.93 77.58 8.51Q77.25 8.10 76.62 8.10L76.62 8.10Q76.17 8.10 75.73 8.39Q75.29 8.68 74.95 9.20L74.95 9.20L74.95 22.25L71.99 22.25ZM84.28 18.23L84.28 8.23L83.03 8.23L83.03 6.12L84.54 6.12L85.14 1.93L87.25 1.93L87.25 6.12L89.82 6.12L89.82 8.23L87.25 8.23L87.25 18.49Q87.25 19.02 87.35 19.34Q87.45 19.66 87.62 19.85Q87.80 20.03 88.03 20.09Q88.27 20.14 88.52 20.14L88.52 20.14Q88.96 20.14 89.29 20.04Q89.63 19.93 89.93 19.75L89.93 19.75L89.93 21.39Q89.67 21.70 89.37 21.90Q89.07 22.10 88.76 22.22Q88.44 22.35 88.11 22.39Q87.79 22.44 87.47 22.44L87.47 22.44Q86.85 22.44 86.27 22.28Q85.70 22.11 85.25 21.65Q84.81 21.19 84.54 20.37Q84.28 19.55 84.28 18.23L84.28 18.23ZM95.74 22.43L95.74 22.43Q94.70 22.43 93.90 22.04Q93.09 21.66 92.54 20.84Q91.99 20.02 91.71 18.73Q91.43 17.45 91.43 15.64L91.43 15.64L91.43 12.60Q91.43 11.06 91.66 9.97Q91.89 8.87 92.26 8.13Q92.63 7.38 93.11 6.95Q93.60 6.52 94.11 6.29Q94.63 6.06 95.14 5.99Q95.65 5.93 96.08 5.93L96.08 5.93Q96.88 5.93 97.62 6.17Q98.36 6.41 98.92 6.99Q99.48 7.57 99.81 8.54Q100.15 9.52 100.15 10.97L100.15 10.97Q100.15 11.46 100.12 11.96Q100.09 12.47 100.04 12.96Q100.00 13.44 99.92 13.90Q99.84 14.36 99.76 14.74L99.76 14.74L94.41 14.74L94.41 16.38Q94.41 17.44 94.49 18.16Q94.57 18.88 94.76 19.32Q94.96 19.76 95.29 19.95Q95.63 20.14 96.13 20.14L96.13 20.14Q96.40 20.14 96.66 20.03Q96.91 19.92 97.11 19.66Q97.30 19.41 97.42 18.98Q97.54 18.55 97.54 17.92L97.54 17.92L97.54 17.41L100.01 17.41L100.01 18.04Q100.01 20.33 98.91 21.38Q97.82 22.43 95.74 22.43ZM94.41 12.75L97.38 12.75Q97.39 12.62 97.41 12.40Q97.42 12.19 97.42 11.95Q97.43 11.72 97.43 11.49Q97.43 11.26 97.43 11.10L97.43 11.10Q97.43 9.50 97.05 8.80Q96.68 8.10 95.94 8.10L95.94 8.10Q95.55 8.10 95.26 8.28Q94.97 8.46 94.78 8.89Q94.59 9.32 94.50 10.02Q94.41 10.72 94.41 11.77L94.41 11.77L94.41 12.75ZM102.66 22.25L102.66 6.12L104.82 6.12L105.08 7.76Q105.57 6.84 106.21 6.39Q106.85 5.93 107.52 5.93L107.52 5.93Q108.80 5.93 109.41 6.71Q110.02 7.50 110.02 9.07L110.02 9.07Q110.02 9.27 109.99 9.54Q109.96 9.82 109.90 10.12Q109.85 10.42 109.78 10.72Q109.70 11.02 109.62 11.26L109.62 11.26L107.55 11.26L107.55 9.76Q107.55 9.27 107.49 8.95Q107.43 8.64 107.32 8.44Q107.21 8.25 107.07 8.17Q106.93 8.10 106.77 8.10L106.77 8.10Q106.42 8.10 106.12 8.33Q105.82 8.55 105.62 8.96L105.62 8.96L105.62 22.25L102.66 22.25ZM111.89 22.25L111.89 6.12L114.18 6.12L114.45 7.84L114.45 7.85Q114.80 7.30 115.20 6.93Q115.61 6.56 116.04 6.34Q116.47 6.12 116.92 6.02Q117.38 5.93 117.82 5.93L117.82 5.93Q119.24 5.93 120.01 6.92Q120.77 7.91 120.77 9.89L120.77 9.89L120.77 22.25L117.81 22.25L117.81 10.00Q117.81 8.93 117.48 8.51Q117.15 8.10 116.52 8.10L116.52 8.10Q116.07 8.10 115.63 8.39Q115.20 8.68 114.86 9.20L114.86 9.20L114.86 22.25L111.89 22.25ZM126.07 22.43L126.07 22.43Q125.32 22.43 124.74 22.13Q124.16 21.83 123.76 21.32Q123.36 20.80 123.16 20.09Q122.95 19.38 122.95 18.55L122.95 18.55Q122.95 17.55 123.20 16.78Q123.45 16.01 123.92 15.39Q124.39 14.77 125.10 14.26Q125.80 13.75 126.73 13.29L126.73 13.29Q127.17 13.07 127.73 12.84Q128.29 12.61 128.72 12.45L128.72 12.45L128.72 10.31Q128.72 9.84 128.68 9.44Q128.65 9.04 128.51 8.74Q128.38 8.44 128.11 8.27Q127.84 8.10 127.37 8.10L127.37 8.10Q127.05 8.10 126.76 8.21Q126.46 8.33 126.23 8.61Q126 8.89 125.87 9.36Q125.73 9.83 125.73 10.52L125.73 10.52L125.73 11.23L123.47 11.23Q123.36 10.77 123.31 10.39Q123.26 10.01 123.26 9.63L123.26 9.63Q123.26 8.73 123.57 8.04Q123.88 7.35 124.44 6.88Q124.99 6.41 125.77 6.17Q126.54 5.93 127.46 5.93L127.46 5.93Q128.67 5.93 129.47 6.19Q130.27 6.46 130.74 6.98Q131.21 7.51 131.41 8.31Q131.60 9.11 131.60 10.17L131.60 10.17L131.60 22.25L129.40 22.25L129.19 20.87Q128.71 21.56 127.90 22.00Q127.10 22.43 126.07 22.43ZM127.38 20.14L127.38 20.14Q127.76 20.14 128.12 19.95Q128.47 19.76 128.72 19.48L128.72 19.48L128.72 14.43Q128.48 14.52 128.19 14.65Q127.90 14.78 127.56 14.99L127.56 14.99Q127.24 15.19 126.94 15.47Q126.63 15.75 126.39 16.14Q126.15 16.52 126.01 17.01Q125.86 17.50 125.86 18.09L125.86 18.09Q125.86 19.02 126.22 19.58Q126.59 20.14 127.38 20.14ZM135.01 18.23L135.01 8.23L133.76 8.23L133.76 6.12L135.27 6.12L135.87 1.93L137.98 1.93L137.98 6.12L140.55 6.12L140.55 8.23L137.98 8.23L137.98 18.49Q137.98 19.02 138.08 19.34Q138.18 19.66 138.35 19.85Q138.53 20.03 138.76 20.09Q139.00 20.14 139.25 20.14L139.25 20.14Q139.69 20.14 140.02 20.04Q140.36 19.93 140.66 19.75L140.66 19.75L140.66 21.39Q140.40 21.70 140.10 21.90Q139.80 22.10 139.49 22.22Q139.17 22.35 138.84 22.39Q138.52 22.44 138.20 22.44L138.20 22.44Q137.58 22.44 137.00 22.28Q136.43 22.11 135.98 21.65Q135.54 21.19 135.28 20.37Q135.01 19.55 135.01 18.23L135.01 18.23ZM144.16 3.81L144.16 3.81Q143.34 3.81 142.87 3.32Q142.39 2.82 142.39 1.88L142.39 1.88Q142.39 1.35 142.52 0.99Q142.64 0.63 142.87 0.42Q143.10 0.20 143.43 0.10Q143.75 0 144.18 0L144.18 0Q145.05 0 145.51 0.45Q145.97 0.89 145.97 1.88L145.97 1.88Q145.97 2.79 145.51 3.30Q145.04 3.81 144.16 3.81ZM142.63 22.25L142.63 6.12L145.59 6.12L145.59 22.25L142.63 22.25ZM152.75 22.43L152.75 22.43Q152.24 22.43 151.71 22.35Q151.17 22.27 150.67 22.01Q150.18 21.75 149.74 21.27Q149.30 20.79 148.97 20.00Q148.64 19.22 148.45 18.07Q148.27 16.92 148.27 15.33L148.27 15.33L148.27 12.80Q148.27 11.23 148.46 10.11Q148.65 8.99 148.99 8.23Q149.32 7.46 149.77 7.01Q150.21 6.56 150.71 6.32Q151.21 6.08 151.73 6.01Q152.26 5.93 152.77 5.93L152.77 5.93Q153.25 5.93 153.76 6Q154.28 6.07 154.77 6.30Q155.26 6.53 155.70 6.98Q156.14 7.43 156.47 8.19Q156.81 8.95 157.00 10.08Q157.20 11.21 157.20 12.80L157.20 12.80L157.20 15.33Q157.20 16.90 157.00 18.04Q156.80 19.17 156.46 19.96Q156.12 20.74 155.67 21.23Q155.23 21.71 154.73 21.98Q154.24 22.25 153.73 22.34Q153.22 22.43 152.75 22.43ZM152.78 20.14L152.78 20.14Q153.18 20.14 153.45 19.94Q153.73 19.73 153.90 19.27Q154.07 18.80 154.14 18.03Q154.22 17.26 154.22 16.13L154.22 16.13L154.22 12.15Q154.22 11.02 154.14 10.24Q154.07 9.47 153.90 8.99Q153.73 8.52 153.45 8.31Q153.18 8.10 152.78 8.10L152.78 8.10Q152.36 8.10 152.07 8.31Q151.78 8.52 151.59 8.99Q151.41 9.47 151.32 10.24Q151.24 11.02 151.24 12.15L151.24 12.15L151.24 16.13Q151.24 17.26 151.32 18.03Q151.41 18.80 151.59 19.27Q151.78 19.73 152.07 19.94Q152.36 20.14 152.78 20.14ZM159.82 22.25L159.82 6.12L162.11 6.12L162.38 7.84L162.38 7.85Q162.73 7.30 163.13 6.93Q163.54 6.56 163.97 6.34Q164.40 6.12 164.85 6.02Q165.30 5.93 165.75 5.93L165.75 5.93Q167.17 5.93 167.94 6.92Q168.70 7.91 168.70 9.89L168.70 9.89L168.70 22.25L165.74 22.25L165.74 10.00Q165.74 8.93 165.41 8.51Q165.08 8.10 164.45 8.10L164.45 8.10Q164.00 8.10 163.56 8.39Q163.13 8.68 162.79 9.20L162.79 9.20L162.79 22.25L159.82 22.25ZM174 22.43L174 22.43Q173.25 22.43 172.67 22.13Q172.09 21.83 171.69 21.32Q171.29 20.80 171.09 20.09Q170.88 19.38 170.88 18.55L170.88 18.55Q170.88 17.55 171.13 16.78Q171.38 16.01 171.85 15.39Q172.32 14.77 173.03 14.26Q173.73 13.75 174.66 13.29L174.66 13.29Q175.10 13.07 175.66 12.84Q176.21 12.61 176.65 12.45L176.65 12.45L176.65 10.31Q176.65 9.84 176.61 9.44Q176.58 9.04 176.44 8.74Q176.31 8.44 176.04 8.27Q175.77 8.10 175.30 8.10L175.30 8.10Q174.98 8.10 174.69 8.21Q174.39 8.33 174.16 8.61Q173.93 8.89 173.79 9.36Q173.66 9.83 173.66 10.52L173.66 10.52L173.66 11.23L171.40 11.23Q171.29 10.77 171.24 10.39Q171.19 10.01 171.19 9.63L171.19 9.63Q171.19 8.73 171.50 8.04Q171.81 7.35 172.37 6.88Q172.92 6.41 173.70 6.17Q174.47 5.93 175.39 5.93L175.39 5.93Q176.60 5.93 177.40 6.19Q178.20 6.46 178.67 6.98Q179.14 7.51 179.34 8.31Q179.53 9.11 179.53 10.17L179.53 10.17L179.53 22.25L177.33 22.25L177.12 20.87Q176.64 21.56 175.83 22.00Q175.03 22.43 174 22.43ZM175.31 20.14L175.31 20.14Q175.69 20.14 176.04 19.95Q176.40 19.76 176.65 19.48L176.65 19.48L176.65 14.43Q176.41 14.52 176.12 14.65Q175.83 14.78 175.49 14.99L175.49 14.99Q175.17 15.19 174.87 15.47Q174.56 15.75 174.32 16.14Q174.08 16.52 173.94 17.01Q173.79 17.50 173.79 18.09L173.79 18.09Q173.79 19.02 174.15 19.58Q174.52 20.14 175.31 20.14ZM182.65 22.25L182.65 0.94L185.61 0.94L185.61 22.25L182.65 22.25ZM192.54 22.25L196.23 2.24L199.72 2.24L203.43 22.25L200.36 22.25L199.80 18.67L196.15 18.67L195.62 22.25L192.54 22.25ZM196.50 16.38L199.45 16.38L198.05 6.41L197.92 6.41L196.50 16.38ZM209.40 22.44L209.40 22.44Q209.05 22.44 208.58 22.37Q208.11 22.29 207.62 22.04Q207.12 21.80 206.64 21.35Q206.16 20.89 205.78 20.15Q205.39 19.41 205.16 18.32Q204.93 17.24 204.93 15.74L204.93 15.74L204.93 8.65Q204.93 7.14 205.17 6.06Q205.42 4.99 205.83 4.26Q206.24 3.53 206.77 3.09Q207.30 2.66 207.88 2.43Q208.45 2.20 209.02 2.13Q209.58 2.06 210.06 2.06L210.06 2.06Q211.28 2.06 212.12 2.40Q212.95 2.73 213.47 3.31Q214.00 3.89 214.22 4.66Q214.45 5.44 214.45 6.30L214.45 6.30Q214.45 6.95 214.38 7.49Q214.30 8.04 214.17 8.70L214.17 8.70L211.75 8.70L211.75 7.75Q211.75 4.45 209.98 4.45L209.98 4.45Q209.50 4.45 209.14 4.62Q208.79 4.78 208.56 5.17Q208.32 5.57 208.21 6.21Q208.10 6.86 208.10 7.82L208.10 7.82L208.10 16.89Q208.10 17.82 208.21 18.45Q208.32 19.07 208.55 19.44Q208.78 19.82 209.13 19.97Q209.47 20.13 209.95 20.13L209.95 20.13Q210.46 20.13 210.82 19.87Q211.18 19.61 211.42 19.15Q211.65 18.69 211.76 18.07Q211.88 17.45 211.88 16.72L211.88 16.72L211.88 14.11L210.32 14.11L210.32 12.12L214.83 12.12L214.83 22.25L212.81 22.25L212.48 20.36Q211.91 21.47 211.17 21.96Q210.42 22.44 209.40 22.44Z" transform="translate(51, 3.374)"></path></svg>